<?xml version="1.0" encoding="UTF-8"?><svg id="_Слой_1" xmlns="http://www.w3.org/2000/svg" viewBox="0 0 506.92 507.21"><defs><style>.cls-1{fill:#000;stroke-width:0px;}</style></defs><path class="cls-1" d="M257.15,506.96c-33.32,0-66.65.47-99.95-.15-27.25-.51-53.87-4.98-78.48-17.73-27.44-14.22-47.75-35.36-60.52-63.44-7.26-15.95-11.46-32.73-13.34-50.33C.69,336.24-.25,297.1.05,257.87c.14-17.82-.23-35.65.1-53.47.31-16.62.72-33.27,2.07-49.83,1.26-15.46,2.8-31.03,6.03-46.17,6.73-31.49,22.6-57.54,49.12-76.67,17.98-12.97,37.92-21.22,59.64-24.71,14.68-2.36,29.57-3.5,44.4-4.77,47.38-4.05,94.87-1.29,142.31-1.77,18.24-.19,36.57.47,54.72,2.18,15.73,1.48,31.69,3.51,46.8,7.88,42.48,12.28,73.32,38.18,88.61,80.74,6.11,17,8.13,34.63,9.74,52.56,4.77,52.83,3.01,105.73,3.04,158.61.01,19.56-1.84,39.12-3.12,58.67-.66,9.99-1.21,20.09-3.08,29.89-8.17,42.69-29.7,76.2-68.86,96.87-15.46,8.16-31.97,13.1-49.39,15.82-19.65,3.07-39.32,3.31-59.05,3.44-22,.15-44,.03-66,.03v-.22h.02ZM252.85,57.44v-.16c-23.48,0-46.97-.55-70.43.16-22.06.67-44.28.06-65.91,6.26-18.02,5.17-33.62,13.56-44.58,29.32-10.03,14.42-13.48,30.96-14.78,47.91-1.63,21.35-3.1,42.77-3.14,64.16-.08,41.6.67,83.2,1.52,124.8.4,19.61.82,39.29,6.18,58.45,5.19,18.57,15.65,33.03,32.44,42.67,17.96,10.31,37.9,13.54,58.07,14.23,34.07,1.16,68.18,1.56,102.28,1.6,28.42.03,56.84-1.12,85.27-1.33,18.11-.13,36.06-1.09,53.49-6.34,17.9-5.39,33.11-14.59,43.38-30.89,8.81-13.98,12.02-29.66,13.25-45.61,1.66-21.52,2.68-43.14,2.83-64.72.26-35.77-.27-71.56-.7-107.33-.28-22.7-.61-45.4-5.03-67.83-2.46-12.49-7.05-23.87-15.02-33.86-14.25-17.88-34.36-24.93-55.63-28.41-14.96-2.45-30.37-2.69-45.59-2.95-25.96-.44-51.93-.12-77.89-.12h0Z"/><path class="cls-1" d="M377.99,259.63c-1.84,38.62-16.86,70.45-45.35,95.79-15.54,13.82-33.94,22.99-54.27,27.17-15.29,3.14-30.91,3.04-46.51.62-24.51-3.81-45.31-14.85-63.26-31.51-16.81-15.59-28.15-34.52-34.97-56.54-5.41-17.49-7.01-35.36-4.26-52.93,7.31-46.67,32.24-80.76,76.12-100.07,18.09-7.96,37.14-11.28,56.6-9.51,24.62,2.24,47.16,10.85,66.67,26.49,21.44,17.2,36.35,38.88,43.2,65.54,2.93,11.41,4.08,23.28,6.04,34.95h-.01ZM182.61,258.61c-1.38,40.45,32.31,72.3,70.05,72,40.83-.33,70.02-33.74,70.37-70.98.38-40.45-32.12-72.59-70.75-72.46-37.82.13-71.04,32.31-69.68,71.44h0Z"/><path class="cls-1" d="M357.59,134.69c-1.51-14.38,13.74-29.61,28.85-29.64,16.87-.03,30.19,16.16,29.76,30.03-.5,16.03-13.87,30.09-29.62,29.86-15.72-.23-29.74-13.61-28.99-30.26h0Z"/></svg>