<?xml version="1.0" encoding="UTF-8"?>
<svg id="_Слой_1" data-name=" Слой 1" xmlns="http://www.w3.org/2000/svg" viewBox="0 0 744.89 744.86">
  <defs>
    <style>
      .cls-1 {
        fill: #151515;
      }

      .cls-1, .cls-2, .cls-3, .cls-4, .cls-5 {
        stroke-width: 0px;
      }

      .cls-2 {
        fill: #161616;
      }

      .cls-3 {
        fill: #3596f2;
      }

      .cls-4 {
        fill: #171717;
      }

      .cls-5 {
        fill: #3696f2;
      }
    </style>
  </defs>
  <path class="cls-2" d="M515.37,541.5c-6.88-6.71-13.73-13.41-20.75-20.25-.16.12-.67.47-1.12.87-34.12,29.84-72.99,50.88-116.7,62.94-13.26,3.66-26.73,6.28-40.37,8.09-17.57,2.33-35.21,2.98-52.88,2.13-33.89-1.63-66.62-8.71-98.04-21.57-35.02-14.33-66.13-34.69-93.43-60.91-25.15-24.16-45.71-51.68-61.24-82.91-12.52-25.19-21.25-51.64-26.17-79.35-2.43-13.71-3.86-27.52-4.43-41.44-.73-17.79.24-35.48,2.7-53.09,4.26-30.44,13.05-59.54,26.4-87.23,17.49-36.28,41.59-67.54,71.68-94.23,36.18-32.1,77.78-53.99,124.69-65.77,16.62-4.17,33.48-6.93,50.59-7.96,8.05-.49,16.13-.87,24.2-.81,33.04.24,65.2,5.76,96.35,16.8,43.77,15.51,81.73,40.11,114.15,73.34,20.86,21.38,38.25,45.26,51.92,71.83,12.16,23.65,20.96,48.48,26.38,74.52,3.07,14.73,5.01,29.6,5.85,44.63.71,12.79.69,25.58-.25,38.35-2.75,37.45-12.12,73.16-28.41,107.02-11.68,24.28-26.43,46.52-44.18,66.78-.42.48-.82.96-1.06,1.25,6.88,6.93,13.67,13.77,20.31,20.47,3.58-.76,7.13-1.81,10.75-2.24,14.09-1.65,26.54,2.26,36.65,12.25,22.13,21.87,44.03,43.96,66.06,65.93,9.9,9.87,19.93,19.61,29.81,29.51,16.04,16.08,32.17,32.07,47.94,48.41,9.93,10.28,13.52,22.93,11.65,37.09-2.47,18.71-17.86,34.56-35.86,37.97-14.94,2.83-28.3-.66-39.51-11.04-6.51-6.02-12.63-12.47-18.91-18.74-11.2-11.19-22.38-22.4-33.58-33.6-3.73-3.73-7.44-7.49-11.2-11.19-7.28-7.18-14.64-14.29-21.87-21.52-16.78-16.81-33.51-33.67-50.25-50.51-2.65-2.66-5.35-5.28-7.91-8.03-12.47-13.32-15.83-28.74-10.49-46.13.16-.53.33-1.05.52-1.65h0ZM298.01,559.85c143.87-.2,261.69-115.98,261.8-261.61.11-147.35-118.66-262.11-260.7-262.36-72.66-.13-134.76,26.29-186.85,76.68-50.01,51.74-75.69,113.51-76.53,185.54.68,145.92,118.05,261.57,262.28,261.75Z"/>
  <path class="cls-3" d="M347.37,362.77v3.03c0,31.27.02,62.54,0,93.81-.02,17.39-12.09,32.92-28.9,37.09-3.07.76-6.3,1.11-9.47,1.18-7.11.17-14.23-.01-21.35.07-18.25.2-33.66-12.27-37.81-29.79-.77-3.23-1.07-6.64-1.08-9.98-.08-30.79-.05-61.58-.05-92.37v-2.98c-.69-.23-1.26-.48-1.86-.61-16.54-3.46-28.84-17.04-30.49-33.72-.17-1.75-.28-3.51-.28-5.26-.02-28.63-.01-57.26-.01-85.89,0-19.69,14.25-35.78,33.82-38.18,1.19-.15,2.39-.16,3.59-.16,29.67,0,59.34-.01,89.01,0,15.42,0,29.79,10.08,35.13,24.57,1.59,4.32,2.45,8.75,2.44,13.37-.02,29.27.03,58.54-.02,87.81-.03,18.17-12.97,33.83-30.81,37.48-.54.11-1.07.3-1.86.52h0Z"/>
  <path class="cls-1" d="M448.25,358.55c-3.76-1.38-7.38-2.27-10.58-3.95-12.74-6.7-19.72-17.28-19.8-31.8-.15-27.11.06-54.22-.08-81.33-.1-19.5,16.23-35.76,35.71-35.73,21.43.03,42.86,0,64.3,0h2.34c18.93,47.15,23.33,95.51,12.27,145.06-10.33,46.3-32.91,85.87-66.67,119.27-8.14-5.06-13.54-11.91-16.14-20.92-.98-3.4-1.35-6.89-1.35-10.42v-80.18h0Z"/>
  <path class="cls-1" d="M146.47,358.2v2.92c0,25.99-.03,51.97,0,77.96,0,9.57-3.17,17.83-9.68,24.81-2.07,2.22-4.41,4.13-7.02,5.66-67.9-64.57-92.73-170.22-54.14-263.7.63-.03,1.33-.1,2.03-.1,21.35,0,42.7-.03,64.05,0,17.55.03,32.81,13.64,34.95,31.11.19,1.58.3,3.18.3,4.78.02,26.79-.16,53.58.07,80.36.15,18.15-12.96,32.98-29.54,35.89-.23.04-.46.13-1.04.3h.01Z"/>
  <path class="cls-5" d="M338.78,141.97c.25,22.91-18.73,41.31-40.73,41.29-21.45-.02-41.12-16.91-41.22-41.15-.09-22.73,18.4-40.86,41.19-40.88,23.35-.02,41.04,19.53,40.75,40.73h.01Z"/>
  <path class="cls-4" d="M466.85,126.67c17.96,17.78,32.66,37.73,44.3,59.96-11.6,6.91-32.36,6.19-45.49-8.87-12.75-14.63-12.33-37.31,1.2-51.08h-.01Z"/>
  <path class="cls-4" d="M84.29,187.13c11.64-22.35,26.27-42.26,44.01-59.91,10.95,10.84,14.31,31.46,3.43,47.18-11.22,16.2-32.02,20.33-47.44,12.73h0Z"/>
</svg>