<?xml version="1.0" encoding="UTF-8"?>
<svg id="_Слой_1" data-name="Слой 1" xmlns="http://www.w3.org/2000/svg" viewBox="0 0 268.13 267.99">
  <defs>
    <style>
      .cls-1 {
        fill: #000;
        stroke-width: 0px;
      }
    </style>
  </defs>
  <path class="cls-1" d="M131.96.14c1.5,0,2.99,0,4.49,0,.25.03.49.07.74.09,3.75.24,7.51.39,11.26.74,7.62.72,15.1,2.21,22.45,4.31,20.46,5.86,38.56,15.97,54.16,30.45,19.5,18.09,32.52,40.06,39.06,65.86,2.09,8.23,3.32,16.6,3.76,25.09.09,1.72.17,3.44.26,5.15v4.49c-.03.25-.08.49-.09.74-.13,6.19-.69,12.35-1.67,18.47-1.57,9.81-4.16,19.34-7.93,28.53-11.45,27.94-30.12,49.74-56.03,65.24-18.4,11.01-38.41,17.04-59.8,18.41-8.73.56-17.44.24-26.12-.9-7.52-.99-14.9-2.59-22.13-4.86-19.38-6.07-36.52-16.02-51.39-29.85-14.17-13.19-24.99-28.74-32.44-46.62-6.02-14.44-9.34-29.49-10.07-45.11-.38-8.01-.03-15.99,1.02-23.95.99-7.52,2.59-14.9,4.85-22.13,6.08-19.42,16.05-36.61,29.93-51.49,13.19-14.14,28.72-24.95,46.58-32.38C97.99,4.08,113.79.72,130.2.25c.59-.02,1.17-.08,1.76-.12ZM252.17,134.04c-.09-65.11-53.1-118.08-118.02-117.94-65.14.14-117.91,52.92-117.92,117.96-.02,65.03,52.96,118.01,117.98,117.98,65.07-.03,118.05-53.03,117.96-118Z"/>
  <path class="cls-1" d="M86.03,59.58c8.46,14.66,16.91,29.28,25.35,43.9-.8.6-1.59,1.13-2.3,1.75-3,2.62-4.54,6.04-5.29,9.87-.67,3.42-.61,6.85-.2,10.29.92,7.62,3.45,14.74,6.85,21.57,2.69,5.4,5.92,10.45,9.82,15.05,3.99,4.7,8.44,8.87,14.01,11.66,2.89,1.45,5.93,2.34,9.19,2.38,2.8.03,5.43-.62,7.9-1.93.18-.09.36-.18.62-.31,8.45,14.64,16.89,29.26,25.37,43.95-1.31.73-2.58,1.47-3.87,2.16-3.52,1.88-7.14,3.53-11.05,4.46-6.23,1.48-12.15.53-17.79-2.36-6.4-3.28-12.05-7.63-17.38-12.4-9.37-8.38-17.42-17.94-24.73-28.14-10.99-15.35-20.06-31.77-27.03-49.33-3.14-7.92-5.74-16.02-7.55-24.36-1.49-6.86-2.41-13.79-2.29-20.83.08-4.74.99-9.26,3.46-13.39,1.41-2.36,3.21-4.38,5.27-6.19,3.53-3.1,7.56-5.45,11.64-7.82Z"/>
  <path class="cls-1" d="M202.71,203.46c-.05,2.19-1.03,3.86-2.92,4.96-4.11,2.4-8.21,4.8-12.36,7.13-3.02,1.7-6.26.73-8.03-2.34-4.16-7.19-8.32-14.39-12.47-21.59-3.69-6.39-7.38-12.79-11.07-19.18-1.23-2.13-1.36-4.28.06-6.33.52-.76,1.29-1.42,2.09-1.89,3.99-2.37,8.02-4.68,12.05-6.98,3.08-1.76,6.35-.9,8.12,2.17,7.89,13.64,15.77,27.3,23.65,40.95.55.95.93,1.96.88,3.1Z"/>
  <path class="cls-1" d="M137.3,90.12c-.03,2.19-.98,3.88-2.87,4.99-4.12,2.41-8.25,4.82-12.42,7.16-3.04,1.71-6.23.73-8.02-2.35-6.61-11.43-13.21-22.87-19.81-34.3-1.27-2.2-2.55-4.39-3.8-6.59-1.72-3.04-.86-6.31,2.15-8.08,4.03-2.36,8.07-4.68,12.12-7,3.11-1.78,6.37-.85,8.19,2.3,5.01,8.67,10.01,17.34,15.01,26.01,2.82,4.88,5.64,9.77,8.46,14.65.57.99,1.01,2.03.98,3.21Z"/>
</svg>