<?xml version="1.0" encoding="UTF-8"?>
<svg id="_Слой_1" data-name="Слой 1" xmlns="http://www.w3.org/2000/svg" viewBox="0 0 788.16 776.4">
  <defs>
    <style>
      .cls-1 {
        fill: #000;
        stroke-width: 0px;
      }
    </style>
  </defs>
  <path class="cls-1" d="M391.68,776.4c-1.8-.29-3.59-.58-5.39-.86-23.57-3.65-42.6-21.96-47.18-45.46-.27-1.38-.24-2.88-.03-4.27.71-4.77-.71-8.74-4.44-11.73-2.11-1.69-4.42-3.17-6.78-4.5-6.92-3.89-13.53-8.21-19.44-13.55-13.37-12.07-21.45-27.05-24.71-44.69-1.15-6.23-1.58-12.51-1.58-18.85,0-13.99,0-27.99-.17-41.98-.14-11.83-.21-23.66-.8-35.47-1.81-35.99-12.43-69.21-32.33-99.31-7.49-11.33-15.61-22.26-23.41-33.39-9.41-13.42-18.66-26.96-26.95-41.11-13.36-22.79-22.17-47.23-26.27-73.35-2.05-13.07-3.01-26.21-2.66-39.42.77-28.42,5.65-56.07,16.07-82.63,10.24-26.08,25.14-49.17,44.5-69.4,16.76-17.51,35.67-32.28,56.76-44.21,22.42-12.69,46.39-20.95,71.88-24.84,10.53-1.61,21.11-2.41,31.76-2.56,25.72-.35,50.84,3.29,75.24,11.45,32.12,10.75,60.42,27.87,84.87,51.32,18.71,17.94,33.84,38.52,45.41,61.69,9.49,18.99,16.02,38.97,19.85,59.86,2.28,12.44,3.68,24.97,4.03,37.62.98,35.34-6.42,68.85-21.74,100.69-7.06,14.68-15.85,28.3-25.08,41.66-11.36,16.44-22.93,32.75-34.17,49.27-14.69,21.61-23.96,45.42-28.1,71.22-1.33,8.3-1.99,16.66-2.28,25.05-.31,9.02-.66,18.05-.79,27.08-.25,17.27-.22,34.54-.54,51.8-.25,13.64-2.77,26.83-8.83,39.2-7,14.28-17.64,25.21-31.09,33.45-4.62,2.83-9.56,5.15-14.39,7.64-2.12,1.09-2.05,1.02-2.02,3.42.27,21.11-8.09,37.82-25.71,49.62-8.05,5.39-17.01,8.41-26.71,9.12-.36.03-.71.25-1.06.39h-5.76ZM455.73,550.75c.28-1.65.6-3.13.76-4.62,1.61-14.87,4.11-29.59,7.7-44.12,6.11-24.69,14.64-48.46,26.87-70.83,10.12-18.5,22.05-35.79,34.96-52.43,8.16-10.52,15.26-21.7,21.05-33.7,10.4-21.56,15.72-44.35,16.34-68.24.32-12.33-.64-24.6-2.74-36.76-3.04-17.62-8.59-34.38-17.12-50.13-13.4-24.76-32.28-44.57-55.25-60.59-21.59-15.06-45.54-24.06-71.71-27.02-11.63-1.32-23.28-1.32-34.95-.23-14.14,1.32-28,3.95-41.54,8.24-26.64,8.45-49.58,22.72-68.44,43.42-13.16,14.44-23.2,30.86-31.35,48.55-8.33,18.09-13.08,37.04-14.1,56.88-.76,14.64-.07,29.23,2.18,43.75,2.73,17.67,8.36,34.22,17.93,49.43,9.88,15.71,20.56,30.88,31.35,45.97,17.42,24.36,30.89,50.74,40.41,79.13,6.91,20.61,11.27,41.78,14.09,63.29.43,3.31.96,6.61,1.46,10h122.11ZM338.85,607.68c-.09.63-.19,1.02-.19,1.41-.01,9.19-.2,18.38.03,27.56.38,14.83,11.61,26.03,26.5,26.51,7.91.26,15.82.22,23.74.22,11.03,0,22.06-.09,33.09-.15.96,0,1.92-.02,2.88-.06,5.6-.19,10.66-1.97,15.16-5.27,4.97-3.64,8.41-8.37,9.18-14.59.55-4.43.84-8.91.88-13.37.06-5.99-.23-11.98-.38-17.97-.04-1.41-.12-2.81-.18-4.3h-110.7Z"/>
  <path class="cls-1" d="M.48,270.16c1.12-.03,2.24-.08,3.35-.08,35.42,0,70.84,0,106.25,0h2.83c.54,1.75.69,52.32.18,55.71-.58.04-1.19.11-1.81.11-36.14,0-72.27,0-108.41,0-.8,0-1.6-.05-2.4-.08,0-18.55,0-37.11,0-55.66Z"/>
  <path class="cls-1" d="M788.16,325.82c-.88.03-1.76.08-2.63.08-35.42,0-70.84,0-106.26,0h-3.02v-55.72c1.01-.03,2.02-.09,3.02-.09,34.3,0,68.6,0,102.9,0,2,0,3.99.05,5.99.08v55.66Z"/>
  <path class="cls-1" d="M79.76,594.62c-12.66-12.65-25.48-25.47-38.09-38.08,25.94-25.93,52.04-52.02,78.3-78.27,12.71,12.56,25.6,25.31,38.3,37.87-26.28,26.27-52.44,52.42-78.51,78.48Z"/>
  <path class="cls-1" d="M747.64,556.52c-12.82,12.82-25.53,25.52-38.1,38.09-25.97-25.96-52.08-52.07-78.35-78.32,12.64-12.56,25.44-25.27,38.02-37.78,26.27,26.13,52.39,52.12,78.42,78.02Z"/>
  <path class="cls-1" d="M669.65,117.14c-12.58-12.58-25.4-25.39-38.01-38,25.83-25.82,51.81-51.79,77.87-77.85,1.49.88,32.88,32.26,37.93,38.08-25.99,25.98-51.96,51.94-77.79,77.77Z"/>
  <path class="cls-1" d="M42.2,38.7c12.28-12.39,24.77-24.98,37.06-37.38,26.03,26.02,52.09,52.07,77.98,77.96-12.39,12.38-24.92,24.91-37.23,37.22-25.87-25.86-51.95-51.94-77.82-77.8Z"/>
</svg>