<?xml version="1.0" encoding="UTF-8"?>
<svg id="_Слой_1" data-name="Слой 1" xmlns="http://www.w3.org/2000/svg" viewBox="0 0 796.74 979.83">
  <defs>
    <style>
      .cls-1 {
        fill: #000;
        stroke-width: 0px;
      }
    </style>
  </defs>
  <path class="cls-1" d="M691.33,499.06c-8.3,6.27-16.21,13.16-24.99,18.67-21.41,13.44-45.34,20.53-69.77,26.12-26.4,6.04-53.28,8.2-80.21,9.96-1.65.11-3.3.2-5.75.34,0,2.07.03,3.99,0,5.91-.31,18.65-.47,37.31-1.08,55.95-.15,4.75-1.33,9.58-2.75,14.15-35.21,113.05-70.5,226.08-105.83,339.1-3.13,10-3.38,10.64-13.93,10.34-17.3-.49-34.65-1.21-51.84-3.07-38.76-4.2-77.04-11.12-114.52-22.18-76.17-22.47-145.74-57.87-209.46-105.18-8-5.94-11.81-11.64-11.13-21.88,1.21-18.09-.14-36.38,1.43-54.43,3.16-36.33,20.98-63.32,53.8-80.35,30.6-15.88,63.26-26.12,95.82-36.79,20.84-6.83,41.52-14.21,61.91-22.27,9.17-3.62,17.46-9.49,27.1-14.88-21.28,53.84-42.25,106.89-63.73,161.26,10.81-1.28,20.02-2.31,29.21-3.47,13.54-1.71,27.09-3.41,40.61-5.34,5.38-.77,8.55.95,11.77,5.65,44.51,64.99,89.3,129.79,134.04,194.63.89,1.3,1.93,2.5,3.66,3.37-4.16-15.02-8.22-30.08-12.51-45.07-28.69-100.08-57.44-200.15-86.1-300.24-.9-3.15-1.38-6.5-1.5-9.78-.82-21.45-1.5-42.92-2.24-64.89-12.29-.62-24.39-1.08-36.47-1.87-44.11-2.88-86.32-12.32-123.78-37.18-7.95-5.28-15.08-11.79-23.34-18.33,2.05-1.21,2.66-1.69,3.35-1.96,22.63-8.68,36.56-26.04,46.48-47.14,13.61-28.97,20.93-59.77,22.76-91.52,2.3-39.91,2.99-79.92,4.2-119.89,1.14-37.66,6.54-74.53,18.92-110.28,20.1-58.08,58.75-96.73,117.55-115.95C355.17.05,387.27-3.41,420.33,3.82c16.83,3.68,32.23,10.94,45.38,22.07,9.69,8.2,20.1,11.48,32.87,11.45,43.71-.09,74.27,22.59,95.11,59.1,17.33,30.35,25.11,63.93,28.94,98.47,4.58,41.26,3.23,82.5.25,123.78-2.25,31.15-2.79,62.27,4.67,92.95,5.77,23.72,16.16,45.24,32.88,63.05,6.82,7.26,15.82,12.49,23.9,18.53,1.96,1.47,4.22,2.52,6.35,3.76.22.69.43,1.38.65,2.06Z"/>
  <path class="cls-1" d="M400.82,979.37c1.71-2.94,2.73-5,4.02-6.86,45.72-65.98,91.48-131.94,137.14-197.96,2.59-3.75,5.2-4.9,9.89-4.15,19.07,3.03,38.22,5.53,57.35,8.17,2.6.36,5.26.38,8.88.63-.79-3.04-1.19-5.59-2.09-7.94-11.92-31.05-23.86-62.1-35.91-93.1-6.93-17.83-14.09-35.57-21.12-53.36-.65-1.64-1.12-3.35-1.97-5.94,2.06.9,3.31,1.22,4.31,1.9,22.98,15.8,49.05,24.4,75.42,32.17,33.37,9.84,66.51,20.25,97.74,35.89,15.17,7.59,29.38,16.52,40.02,30.06,14.49,18.44,21.62,39.59,21.99,62.96.29,18.16.32,36.33.19,54.49-.01,1.91-1.34,4.44-2.88,5.64-82.85,64.27-175.64,106.81-278.67,126.63-34.9,6.71-70.21,10.05-105.72,11.2-2.55.08-5.12-.26-8.58-.45Z"/>
</svg>