<?xml version="1.0" encoding="UTF-8"?>
<svg id="_Слой_1" data-name="Слой 1" xmlns="http://www.w3.org/2000/svg" xmlns:xlink="http://www.w3.org/1999/xlink" viewBox="0 0 186 186">
  <defs>
    <style>
      .cls-1 {
        fill: url(#_Безымянный_градиент_330);
      }

      .cls-1, .cls-2, .cls-3 {
        stroke-width: 0px;
      }

      .cls-2 {
        fill: url(#_Безымянный_градиент_331);
      }

      .cls-3 {
        fill: url(#_Безымянный_градиент_280);
      }
    </style>
    <linearGradient id="_Безымянный_градиент_331" data-name="Безымянный градиент 331" x1="0" y1="93" x2="186" y2="93" gradientUnits="userSpaceOnUse">
      <stop offset="0" stop-color="#0069aa"/>
      <stop offset=".48" stop-color="#000"/>
      <stop offset=".71" stop-color="#d4a600"/>
      <stop offset="1" stop-color="#7f000e"/>
    </linearGradient>
    <linearGradient id="_Безымянный_градиент_280" data-name="Безымянный градиент 280" x1="28" y1="93.5" x2="158" y2="93.5" gradientUnits="userSpaceOnUse">
      <stop offset="0" stop-color="#0069aa"/>
      <stop offset=".41" stop-color="#000"/>
      <stop offset=".82" stop-color="#e09612"/>
      <stop offset="1" stop-color="#7f000e"/>
    </linearGradient>
    <linearGradient id="_Безымянный_градиент_330" data-name="Безымянный градиент 330" x1="61.5" y1="93" x2="124.5" y2="93" gradientUnits="userSpaceOnUse">
      <stop offset="0" stop-color="#0069aa"/>
      <stop offset=".43" stop-color="#000"/>
      <stop offset=".78" stop-color="#d4a600"/>
      <stop offset="1" stop-color="#7f000e"/>
    </linearGradient>
  </defs>
  <path class="cls-2" d="M152.84,16c9.46,0,17.16,7.7,17.16,17.16v119.68c0,9.46-7.7,17.16-17.16,17.16H33.16c-9.46,0-17.16-7.7-17.16-17.16V37.11c0-11.64,9.47-21.11,21.11-21.11h115.73M152.84,0H37.11C16.61,0,0,16.61,0,37.11v115.73c0,18.31,14.85,33.16,33.16,33.16h119.68c18.31,0,33.16-14.85,33.16-33.16V33.16c0-18.31-14.85-33.16-33.16-33.16h0Z"/>
  <path class="cls-3" d="M96,46c25.36,0,46,20.64,46,46v3c0,25.36-20.64,46-46,46h-6c-25.36,0-46-20.64-46-46v-3c0-25.36,20.64-46,46-46h6M96,30h-6c-34.24,0-62,27.76-62,62v3c0,34.24,27.76,62,62,62h6c34.24,0,62-27.76,62-62v-3c0-34.24-27.76-62-62-62h0Z"/>
  <path class="cls-1" d="M93,77.5c8.55,0,15.5,6.95,15.5,15.5s-6.95,15.5-15.5,15.5-15.5-6.95-15.5-15.5,6.95-15.5,15.5-15.5M93,61.5c-17.4,0-31.5,14.1-31.5,31.5s14.1,31.5,31.5,31.5,31.5-14.1,31.5-31.5-14.1-31.5-31.5-31.5h0Z"/>
</svg>