<?xml version="1.0" encoding="UTF-8"?>
<svg id="_Слой_1" data-name="Слой 1" xmlns="http://www.w3.org/2000/svg" viewBox="0 0 160 160">
  <defs>
    <style>
      .cls-1 {
        fill: #fecf13;
      }

      .cls-1, .cls-2, .cls-3, .cls-4, .cls-5, .cls-6, .cls-7, .cls-8, .cls-9, .cls-10, .cls-11, .cls-12, .cls-13, .cls-14, .cls-15, .cls-16, .cls-17, .cls-18, .cls-19, .cls-20, .cls-21, .cls-22, .cls-23, .cls-24, .cls-25, .cls-26, .cls-27 {
        stroke-width: 0px;
      }

      .cls-2 {
        fill: #fe064f;
      }

      .cls-3 {
        fill: #fe462d;
      }

      .cls-4 {
        fill: #fe2196;
      }

      .cls-5 {
        fill: #9e06f2;
      }

      .cls-6 {
        fill: #feb405;
      }

      .cls-7 {
        fill: #fe113c;
      }

      .cls-8 {
        fill: #fe0ac7;
      }

      .cls-9 {
        fill: #fe1d83;
      }

      .cls-10 {
        fill: #fe005d;
      }

      .cls-11 {
        fill: #fe0384;
      }

      .cls-12 {
        fill: #fe6208;
      }

      .cls-13 {
        fill: #fe0465;
      }

      .cls-14 {
        fill: #8201fd;
      }

      .cls-15 {
        fill: #7f13fe;
      }

      .cls-16 {
        fill: #fe9200;
      }

      .cls-17 {
        fill: #e801e6;
      }

      .cls-18 {
        fill: #fe283f;
      }

      .cls-19 {
        fill: #fe08b4;
      }

      .cls-20 {
        fill: #fe06a4;
      }

      .cls-21 {
        fill: #fec300;
      }

      .cls-22 {
        fill: #fe7605;
      }

      .cls-23 {
        fill: #fe5505;
      }

      .cls-24 {
        fill: #fe4000;
      }

      .cls-25 {
        fill: #c511ea;
      }

      .cls-26 {
        fill: #920dfe;
      }

      .cls-27 {
        fill: #fa0cdc;
      }
    </style>
  </defs>
  <path class="cls-21" d="M91.99,149.54c-3.32.01-6.63.02-9.95.04-1-1.35-1.73-3.07-3.03-3.98-7.71-5.36-16.61-5.23-25.32-4.35-3.93.39-8.1,2.25-8.73,7.4-3.7-1.12-7.4-2.24-11.1-3.37,2.05-3.43,4.09-6.85,6.14-10.28,5.73.71,11.44,1.78,17.18,2.04,9.26.43,18.54.33,27.81.45.85,1.52,1.69,3.05,2.57,4.56,1.46,2.5,2.95,4.99,4.43,7.49Z"/>
  <path class="cls-10" d="M149.55,70.02c0,7.32,0,14.64,0,21.96-1.27.84-3.16,1.39-3.7,2.57-2.47,5.32-4.53,10.82-6.83,16.22-.5,1.17-1.39,2.16-2.1,3.24.2-13,.4-26,.6-39,2.42-1.09,4.82-2.23,7.26-3.26,1.56-.66,3.18-1.15,4.78-1.72Z"/>
  <path class="cls-13" d="M136.91,114c.71-1.07,1.61-2.07,2.1-3.24,2.3-5.4,4.35-10.91,6.83-16.22.55-1.18,2.43-1.73,3.7-2.57-.11,4.98-.21,9.95-.32,14.93-.69.67-1.73,1.21-2.01,2.02-2.5,7.31-5.15,14.62-3.99,22.58-.87,1.26-1.73,2.51-2.6,3.77-.88-3.89-1.64-7.81-2.68-11.65-.44-1.65-1.45-3.14-2.2-4.7.39-1.64.77-3.28,1.16-4.92Z"/>
  <path class="cls-1" d="M44.96,148.65c.63-5.14,4.8-7,8.73-7.4,8.72-.87,17.61-1,25.32,4.35,1.3.9,2.04,2.63,3.03,3.98-12.36-.31-24.72-.62-37.08-.93Z"/>
  <path class="cls-17" d="M108,12.07c4.67.66,9.34,1.31,14.01,1.97-2.48,5.02-7.64,5.33-12.07,7-1.77.66-3.3,1.95-4.94,2.95-8.34-.09-16.67-.17-25.01-.26,1.04-.92,1.93-2.24,3.15-2.7,8.25-3.09,16.57-6,24.87-8.96Z"/>
  <path class="cls-5" d="M68.01,11.7c6.98-.02,13.96-.04,20.94-.06-.42.82-.64,2.16-1.27,2.39-4.88,1.78-9.93,3.13-14.74,5.06-2.83,1.13-5.34,3.09-7.99,4.67-4.65.13-9.29.27-13.94.4.89-1,1.74-2.05,2.69-3,1.4-1.41,2.88-2.75,4.32-4.13,3.51-1.44,8.61.09,10-5.32Z"/>
  <path class="cls-26" d="M58.01,17.03c-1.44,1.37-2.92,2.71-4.32,4.13-.95.95-1.79,2-2.69,3-9.6,1.14-18.08,4.3-23.36,13.12l-13.15.59c.98-2.35,1.95-4.69,2.93-7.04,6.57,1.03,11.18-3.5,16.57-5.83,8.01-2.66,16.02-5.31,24.03-7.97Z"/>
  <path class="cls-25" d="M64.94,23.76c2.65-1.58,5.16-3.53,7.99-4.67,4.82-1.93,9.86-3.28,14.74-5.06.63-.23.86-1.57,1.27-2.39,6.35.14,12.7.29,19.05.43-8.3,2.97-16.61,5.87-24.87,8.96-1.22.46-2.11,1.78-3.15,2.7-5.02,0-10.03.02-15.05.03Z"/>
  <path class="cls-8" d="M131.09,17.8c4,4.05,8.01,8.11,12.01,12.16-3.18,2.39-6.36,4.78-9.54,7.18-2.86-3.01-5.72-6.01-8.59-9.02,2.04-3.44,4.08-6.88,6.12-10.32Z"/>
  <path class="cls-15" d="M33.98,25c-5.39,2.33-10,6.87-16.57,5.83,7.12-11.99,17.3-18.53,31.6-17.73-1.57.98-3.08,2.09-4.72,2.92-4.21,2.13-9.43,3.04-10.31,8.98Z"/>
  <path class="cls-24" d="M12.25,110.99c-.2-4.96-.41-9.91-.61-14.87,4.05-1.05,8.09-2.11,12.14-3.16.07,4.35.15,8.69.22,13.04-1.79.64-3.62,1.2-5.36,1.95-2.17.93-4.26,2.02-6.39,3.04Z"/>
  <path class="cls-27" d="M131.09,17.8c-2.04,3.44-4.08,6.88-6.12,10.32-6.66-1.38-13.31-2.75-19.97-4.13,1.64-1,3.17-2.29,4.94-2.95,4.44-1.67,9.59-1.99,12.07-7,3.02,1.25,6.05,2.51,9.07,3.76Z"/>
  <path class="cls-14" d="M33.98,25c.88-5.94,6.09-6.85,10.31-8.98,1.65-.83,3.15-1.94,4.72-2.92,1.1-.05,2.2-.11,3.29-.16,3.2-.33,6.41-.65,9.62-.98,2.03-.09,4.06-.17,6.09-.26-1.4,5.42-6.49,3.89-10,5.33-8.01,2.66-16.02,5.31-24.03,7.97Z"/>
  <path class="cls-6" d="M40,135.01c-2.05,3.43-4.09,6.85-6.14,10.28-3.77-2.68-7.55-5.35-11.32-8.03,2.83-2.76,5.65-5.53,8.48-8.29,2.99,2.01,5.99,4.03,8.98,6.04Z"/>
  <path class="cls-6" d="M91.99,149.54c-1.48-2.49-2.97-4.98-4.43-7.49-.88-1.51-1.71-3.04-2.57-4.56,4.33-.11,8.66-.23,13-.34,1.34,4.18,2.67,8.36,4.01,12.54-3.34-.05-6.67-.1-10.01-.15Z"/>
  <path class="cls-13" d="M149.55,70.02c-1.6.57-3.22,1.06-4.78,1.72-2.44,1.03-4.84,2.17-7.26,3.26-.02-3.32-.05-6.65-.07-9.97,1.79-.77,3.57-1.57,5.38-2.31,2.22-.91,4.46-1.77,6.7-2.65.01,3.32.02,6.63.03,9.95Z"/>
  <path class="cls-16" d="M31.02,128.97c-2.83,2.76-5.65,5.53-8.48,8.29-2.12-3.08-4.23-6.16-6.35-9.24,3.23-2.66,6.46-5.32,9.7-7.98,1.71,2.98,3.42,5.95,5.13,8.93Z"/>
  <path class="cls-25" d="M12.29,49.01c.39-2.7.78-5.4,1.18-8.1,4.18.04,8.36.07,12.54.11-.51,3.33-1.01,6.66-1.52,10-4.06-.67-8.13-1.34-12.19-2.01Z"/>
  <path class="cls-11" d="M148.82,46.03c.16,2.97.31,5.93.47,8.9-3.98,1.68-7.95,3.37-11.93,5.05-.09-2.65-.17-5.31-.26-7.96,3.91-2,7.81-3.99,11.72-5.99Z"/>
  <path class="cls-22" d="M116.01,148.7c-2.63.25-5.26.5-7.89.74-1.37-4.09-2.73-8.18-4.1-12.27,2.99-.06,5.98-.12,8.97-.18,1.01,3.91,2.01,7.81,3.02,11.72Z"/>
  <path class="cls-7" d="M23.78,92.96c-4.05,1.05-8.09,2.1-12.14,3.16,0-2.7,0-5.39.01-8.09,4.07-1.01,8.13-2.02,12.2-3.03-.02,2.65-.05,5.31-.07,7.96Z"/>
  <path class="cls-27" d="M11.74,64.99c.1-3.32.21-6.64.31-9.95,1.2,2.4,2.75,3.62,5.72,2.65,1.93-.63,4.12-.48,6.19-.67-.06,2-.12,3.99-.17,5.99-4.01.66-8.03,1.32-12.04,1.98Z"/>
  <path class="cls-17" d="M23.96,57.01c-2.07.2-4.26.04-6.19.67-2.96.97-4.52-.25-5.72-2.65.08-2.01.16-4.02.24-6.03,4.06.67,8.13,1.34,12.19,2.01-.17,2-.35,4-.52,6Z"/>
  <path class="cls-9" d="M143.23,131.5c-1.16-7.96,1.49-15.27,3.99-22.58.28-.81,1.32-1.35,2.01-2.02.4,8.78-.87,17.16-6,24.59Z"/>
  <path class="cls-20" d="M145.85,35.06c.73,2.31,1.45,4.62,2.18,6.94-3.7,2.01-7.4,4.02-11.09,6.03-.34-1.67-.67-3.34-1.01-5.01,3.31-2.65,6.62-5.3,9.93-7.95Z"/>
  <path class="cls-19" d="M145.85,35.06c-3.31,2.65-6.62,5.3-9.93,7.95-.79-1.96-1.58-3.92-2.37-5.88,3.18-2.39,6.36-4.78,9.54-7.18.92,1.7,1.84,3.4,2.76,5.1Z"/>
  <path class="cls-12" d="M14.59,124.15c-.5-2.05-.99-4.1-1.49-6.16,3.79-2.33,7.58-4.67,11.38-7,.18,2,.36,4,.54,6-1.55,1.05-3.11,2.08-4.65,3.14-1.93,1.33-3.85,2.68-5.78,4.02Z"/>
  <path class="cls-2" d="M23.85,85c-4.07,1.01-8.13,2.02-12.2,3.03-.02-1.98-.04-3.96-.06-5.94,4.06-1.02,8.12-2.03,12.18-3.05.03,1.99.05,3.98.08,5.97Z"/>
  <path class="cls-23" d="M24.48,110.99c-3.79,2.33-7.58,4.67-11.38,7-.28-2.33-.57-4.67-.85-7,2.13-1.02,4.22-2.11,6.39-3.04,1.74-.75,3.57-1.31,5.36-1.95.16,1.66.32,3.33.48,4.99Z"/>
  <path class="cls-16" d="M104.02,137.17c1.37,4.09,2.73,8.18,4.1,12.27-2.04.08-4.07.17-6.11.25-1.34-4.18-2.67-8.36-4.01-12.54,2.01,0,4.01,0,6.02,0Z"/>
  <path class="cls-2" d="M137.09,138.22c-.35.61-.7,1.22-1.05,1.84-2.01-3.66-4.02-7.32-6.03-10.97,1.26-1.72,2.51-3.44,3.77-5.15.74,1,1.96,1.93,2.13,3.02.59,3.73.81,7.51,1.18,11.27Z"/>
  <path class="cls-18" d="M130.01,129.08c2.01,3.66,4.02,7.32,6.03,10.97-1.62,1.15-3.24,2.29-4.86,3.44-1.41-3.87-2.83-7.73-4.24-11.6,1.02-.94,2.04-1.88,3.07-2.81Z"/>
  <path class="cls-9" d="M137.36,59.98c3.98-1.68,7.95-3.37,11.93-5.05.07,1.71.15,3.43.22,5.14-2.23.88-4.47,1.74-6.7,2.65-1.81.74-3.59,1.54-5.38,2.31-.03-1.68-.05-3.37-.08-5.05Z"/>
  <path class="cls-8" d="M11.74,64.99c4.01-.66,8.03-1.32,12.04-1.98-.01,1.66-.03,3.33-.04,4.99-4.01.34-8.03.68-12.04,1.02.01-1.34.03-2.69.04-4.03Z"/>
  <path class="cls-24" d="M127.22,145.46c-1.4.49-2.81.98-4.21,1.47-1.34-3.68-2.68-7.35-4.01-11.03.91-.36,1.83-.72,2.74-1.07,1.83,3.54,3.66,7.09,5.49,10.63Z"/>
  <path class="cls-20" d="M11.7,69.02c4.01-.34,8.03-.68,12.04-1.02.01,2.31.03,4.63.04,6.94-.25-.01-.51-.02-.76,0-.82-.76-1.6-2.11-2.46-2.16-2.94-.16-5.9.13-8.86.26,0-1.34,0-2.67,0-4.01Z"/>
  <path class="cls-22" d="M14.59,124.15c1.93-1.34,3.85-2.69,5.78-4.02,1.54-1.06,3.1-2.09,4.65-3.14.29,1.02.58,2.03.87,3.05-3.23,2.66-6.46,5.32-9.7,7.98-.54-1.29-1.07-2.58-1.61-3.87Z"/>
  <path class="cls-9" d="M23.03,74.93c.25,0,.51,0,.76,0,0,1.37-.02,2.73-.02,4.1-4.06,1.02-8.12,2.04-12.18,3.05,0-1.7.01-3.41.02-5.11,3.81-.68,7.61-1.37,11.42-2.05Z"/>
  <path class="cls-4" d="M136.94,48.03c3.7-2.01,7.4-4.02,11.09-6.03.26,1.34.53,2.69.79,4.03-3.91,2-7.81,3.99-11.72,5.99-.05-1.33-.11-2.66-.16-3.99Z"/>
  <path class="cls-3" d="M127.22,145.46c-1.83-3.54-3.66-7.09-5.49-10.63,1.74-.98,3.47-1.96,5.21-2.93,1.41,3.87,2.83,7.73,4.24,11.6-1.32.66-2.64,1.31-3.96,1.97Z"/>
  <path class="cls-23" d="M118.99,135.9c1.34,3.68,2.68,7.35,4.01,11.03-.46.1-.92.19-1.38.28-5.62-1.45-4.94-6.8-6.62-10.69,1.33-.21,2.66-.42,3.98-.62Z"/>
  <path class="cls-10" d="M137.09,138.22c-.36-3.76-.58-7.55-1.18-11.27-.17-1.09-1.39-2.02-2.13-3.02.66-1.67,1.31-3.34,1.97-5,.75,1.56,1.76,3.06,2.2,4.7,1.04,3.85,1.8,7.76,2.68,11.65-1.18.98-2.36,1.96-3.54,2.94Z"/>
  <path class="cls-5" d="M26.01,41.02c-4.18-.04-8.36-.07-12.54-.11.34-1.01.68-2.03,1.02-3.04,4.38-.2,8.77-.39,13.15-.59-.54,1.25-1.09,2.49-1.63,3.74Z"/>
  <path class="cls-11" d="M23.03,74.93c-3.81.68-7.61,1.37-11.42,2.05.03-1.32.07-2.63.1-3.95,2.95-.12,5.92-.42,8.86-.26.86.05,1.64,1.4,2.46,2.16Z"/>
  <path class="cls-12" d="M115.01,136.52c1.68,3.89,1,9.24,6.62,10.69-1.87.5-3.75.99-5.62,1.49-1.01-3.91-2.01-7.81-3.02-11.72.67-.15,1.35-.31,2.02-.46Z"/>
  <path class="cls-25" d="M61.92,11.96c-3.21.33-6.41.65-9.62.98,3.21-.33,6.41-.65,9.62-.98Z"/>
  <path class="cls-19" d="M57.48,54.2c5.03-5.24,11.29-7.81,18.41-8.5,5.72,2.72,11.29,5.9,17.24,7.94,2.65.91,6.08-.46,9.16-.8,2.32,2.68,4.64,5.36,6.96,8.04-3.77,1.42-7.54,2.85-11.31,4.27-5.49-5.56-12.25-7.83-19.94-7.64-.87-1.18-1.67-3.31-2.62-3.38-3.94-.3-7.92.04-11.89.1-2,.03-4-.02-6-.03Z"/>
  <path class="cls-20" d="M57.48,54.2c2,.01,4,.07,6,.03,3.97-.07,7.95-.41,11.89-.1.96.07,1.75,2.2,2.62,3.38-5.01,2.64-10.02,5.27-15.03,7.91-4.63-.14-9.25-.28-13.88-.42,2.8-3.6,5.6-7.2,8.39-10.8Z"/>
  <path class="cls-12" d="M59.84,109.05c-1.62-1.34-3.24-2.68-4.86-4.02,1.99-.51,3.99-1.46,5.97-1.42,2.7.06,5.38.87,8.07,1.37,1.15.12,2.39-.02,3.42.39,6.86,2.71,13.68,5.53,20.51,8.32-3.65.76-7.29,1.51-10.94,2.27-.9-1-1.65-2.64-2.72-2.9-6.44-1.51-12.95-2.71-19.44-4.01Z"/>
  <path class="cls-13" d="M115.71,85c-1.9,4.97-3.8,9.94-5.71,14.91-1.63-.64-3.21-1.44-4.89-1.89-2.41-.64-4.89-1.02-7.34-1.52,1.79-3.17,3.58-6.34,5.37-9.5,4.19-.67,8.38-1.34,12.57-2Z"/>
  <path class="cls-11" d="M115.71,85c-4.19.67-8.38,1.34-12.57,2,.04-4,.09-8,.13-12,3.79-1.33,7.59-2.66,11.38-4,.35,4.66.7,9.33,1.06,13.99Z"/>
  <path class="cls-20" d="M114.66,71.01c-3.79,1.33-7.59,2.66-11.38,4-1.78-3.28-3.56-6.57-5.34-9.85,3.77-1.42,7.54-2.85,11.31-4.27,1.8,3.37,3.61,6.75,5.41,10.12Z"/>
  <path class="cls-8" d="M112.58,49.85c-3.28-2.29-4.7-5.76-2.55-8.9,1.71-2.49,5.02-4.93,7.9-5.33,3.65-.5,6.82,1.98,7.52,6.26-4.29,2.66-8.58,5.31-12.88,7.97Z"/>
  <path class="cls-8" d="M102.3,52.85c-3.08.34-6.51,1.71-9.16.8-5.95-2.05-11.52-5.22-17.24-7.94,9.93-1.79,18.69.74,26.4,7.14Z"/>
  <path class="cls-7" d="M46.25,88.94c-.33-2.98-.65-5.96-.98-8.94,4.07,1,8.14,2,12.21,3.01.74,2.61,1.48,5.21,2.21,7.82-4.48-.63-8.97-1.26-13.45-1.88Z"/>
  <path class="cls-3" d="M101.33,109.16c-2.11,1.24-4.22,2.48-6.34,3.72-.79-.63-1.52-1.39-2.39-1.88-5.04-2.86-11.79-2.13-15.63-7.49,3.95-.3,7.9-.6,11.85-.9,4.17,2.18,8.34,4.37,12.51,6.55Z"/>
  <path class="cls-10" d="M57.49,83.01c-4.07-1-8.14-2-12.21-3.01.28-2.33.56-4.65.84-6.98,3.97.66,7.95,1.32,11.92,1.98-.18,2.67-.37,5.34-.55,8.01Z"/>
  <path class="cls-24" d="M76.96,103.51c3.85,5.35,10.6,4.63,15.63,7.49.87.49,1.6,1.25,2.39,1.88-.68.27-1.36.54-2.05.81-6.83-2.79-13.65-5.61-20.51-8.32-1.03-.41-2.27-.27-3.42-.39-1.31-1.14-2.56-2.36-3.95-3.39-1.28-.96-2.71-1.72-4.07-2.57,1.69-.01,3.39-.02,5.08-.04,1.64,1.01,3.28,2.01,4.92,3.02.53.23,1.06.47,1.59.7,1.46.27,2.92.54,4.38.81Z"/>
  <path class="cls-2" d="M97.78,96.51c2.45.49,4.93.88,7.34,1.52,1.68.45,3.26,1.24,4.89,1.89-1.88,2.32-3.76,4.65-5.64,6.97-3.48-2.34-6.97-4.69-10.45-7.03,1.29-1.11,2.58-2.23,3.87-3.34Z"/>
  <path class="cls-22" d="M59.84,109.05c6.49,1.3,13,2.49,19.44,4.01,1.07.25,1.82,1.89,2.72,2.9-8.27.54-15.74-1.51-22.16-6.9Z"/>
  <path class="cls-3" d="M66.08,98.98c-1.69.01-3.39.02-5.08.04-.32-.02-.64-.03-.97-.02-4.15-1.96-8.3-3.92-12.45-5.89-.44-1.39-.89-2.78-1.33-4.16,4.48.63,8.97,1.26,13.45,1.88,2.13,2.72,4.25,5.44,6.38,8.15Z"/>
  <path class="cls-19" d="M112.58,49.85c4.29-2.66,8.58-5.31,12.88-7.97,1.19,3.88-.23,6.89-3.5,8.84-3.17,1.9-6.52,2.25-9.38-.87Z"/>
  <path class="cls-18" d="M93.91,99.85c3.48,2.34,6.97,4.69,10.45,7.03-1.01.76-2.03,1.52-3.04,2.27-4.17-2.18-8.34-4.37-12.51-6.55,1.7-.92,3.4-1.84,5.1-2.75Z"/>
  <path class="cls-23" d="M60.03,98.99c.32,0,.64,0,.97.02,1.36.85,2.79,1.61,4.07,2.57,1.39,1.04,2.64,2.25,3.95,3.39-2.69-.49-5.37-1.31-8.07-1.37-1.98-.04-3.98.91-5.97,1.42-1.44-1.97-2.89-3.94-4.33-5.9,3.13-.04,6.25-.09,9.38-.13Z"/>
  <path class="cls-9" d="M58.04,75c-3.97-.66-7.95-1.32-11.92-1.98.42-1.39.83-2.77,1.25-4.16,4.37.12,8.75.24,13.12.36-.82,1.92-1.63,3.85-2.45,5.77Z"/>
  <path class="cls-11" d="M60.48,69.23c-4.37-.12-8.75-.24-13.12-.36.57-1.29,1.15-2.58,1.72-3.87,4.63.14,9.25.28,13.88.42-.83,1.27-1.66,2.54-2.49,3.81Z"/>
  <path class="cls-24" d="M60.03,98.99c-3.13.04-6.25.09-9.38.13-1.02-2.01-2.05-4.01-3.07-6.02,4.15,1.96,8.3,3.92,12.45,5.89Z"/>
  <path class="cls-3" d="M71,102c.53.23,1.06.47,1.58.7-.53-.24-1.06-.47-1.58-.7Z"/>
</svg>