<?xml version="1.0" encoding="UTF-8"?>
<svg id="_Слой_1" data-name=" Слой 1" xmlns="http://www.w3.org/2000/svg" viewBox="0 0 2026.74 2026.67">
  <defs>
    <style>
      .cls-1 {
        fill: #049ae7;
        stroke-width: 0px;
      }
    </style>
  </defs>
  <path class="cls-1" d="M2026.74,1013.4c0,556.86-450.38,1015.29-1017.48,1013.26C446.03,2024.64-5.19,1565.4.05,1003.27,5.17,452.21,453.1-3.62,1020.4.02c560.51,3.6,1006.29,458.69,1006.34,1013.38ZM999.85,1334.55c5.92,4.18,11.41,7.89,16.73,11.82,77.5,57.13,155.01,114.26,232.45,171.47,9.85,7.28,20.86,11.79,32.63,14.49,21.13,4.85,38.18-2.22,49.95-20.4,6.43-9.93,10.3-20.9,12.74-32.37,13.88-65.14,27.7-130.29,41.53-195.43,15.56-73.29,31.1-146.59,46.64-219.88,14.78-69.71,29.54-139.42,44.35-209.13,11.41-53.75,22.97-107.46,34.26-161.24,3.66-17.44,5.11-34.99-1.06-52.28-5.38-15.08-15.29-25.58-31.06-29.86-13.44-3.64-26.55-1.58-39.19,3.28-85.82,32.94-171.58,66.03-257.35,99.09-65.57,25.28-131.13,50.6-196.7,75.89-56.87,21.94-113.72,43.9-170.6,65.81-65.89,25.39-131.81,50.7-197.69,76.11-53.14,20.5-106.29,40.99-159.35,61.71-13.42,5.24-25.99,12.22-36.09,22.77-14.06,14.7-12.99,31.04,3.79,42.44,8.67,5.9,18.63,10.54,28.65,13.71,79.69,25.2,159.57,49.82,239.29,74.92,6.48,2.04,11.27,1.08,16.74-2.38,66.45-42.04,133-83.91,199.52-125.83,70.47-44.41,140.94-88.82,211.42-133.21,53.85-33.91,107.64-67.9,161.66-101.53,6.37-3.96,13.83-6.58,21.12-8.52,5.63-1.5,12.76-2.23,16,4.33,3.1,6.29-2.13,10.49-6.31,14.3-11.56,10.55-23.24,20.98-34.85,31.48-59.3,53.63-118.57,107.3-177.91,160.89-83.81,75.71-167.66,151.38-251.54,227.01-3.4,3.07-5.22,6.32-5.54,11.1-2.98,44.21-6.25,88.4-9.39,132.59-2.62,36.89-5.17,73.78-7.72,110.67-.17,2.54-.02,5.09-.02,8.18,2.55,0,4.16.07,5.76-.01,17.03-.92,30.01-9.71,41.78-21.16,32.72-31.83,65.55-63.54,98.38-95.25,8.81-8.51,17.77-16.88,26.94-25.59h.04Z"/>
</svg>