<?xml version="1.0" encoding="UTF-8"?>
<svg id="_Слой_1" data-name="Слой 1" xmlns="http://www.w3.org/2000/svg" viewBox="0 0 29.73 30">
  <defs>
    <style>
      .cls-1 {
        fill: #25d366;
        stroke-width: 0px;
      }
    </style>
  </defs>
  <path class="cls-1" d="M29.72,14.32c-.14-3.83-1.75-7.46-4.51-10.13S18.79.02,14.95,0h-.07c-2.58,0-5.12.67-7.36,1.94-2.24,1.28-4.12,3.12-5.43,5.34C.77,9.5.05,12.03,0,14.61c-.05,2.58.58,5.13,1.82,7.4l-1.31,7.87s0,.03,0,.05c0,.02.01.03.02.04s.02.02.04.03c.01,0,.03.01.05.01h.02l7.78-1.73c2.01.97,4.21,1.47,6.44,1.47h.43c1.96-.06,3.89-.5,5.68-1.31,1.79-.81,3.4-1.96,4.74-3.39,1.34-1.43,2.39-3.12,3.07-4.96.69-1.84,1-3.79.93-5.76h0ZM15.22,27.15h-.35c-1.97,0-3.91-.47-5.66-1.38l-.4-.21-5.28,1.25.97-5.34-.23-.38c-1.08-1.84-1.66-3.93-1.69-6.07-.03-2.14.5-4.24,1.54-6.11,1.03-1.87,2.54-3.43,4.36-4.54,1.82-1.11,3.91-1.73,6.04-1.79h.36c3.22,0,6.31,1.28,8.6,3.55,2.29,2.27,3.6,5.34,3.65,8.56.05,3.22-1.18,6.33-3.4,8.66-2.23,2.33-5.28,3.69-8.5,3.79h-.01Z"/>
  <path class="cls-1" d="M9.7,7.69c-.18,0-.36.04-.53.12-.17.07-.32.18-.44.32-.35.36-1.34,1.24-1.4,3.07-.06,1.84,1.23,3.65,1.41,3.91.18.25,2.45,4.22,6.2,5.83,2.2.95,3.17,1.11,3.79,1.11.26,0,.45-.03.66-.04.69-.04,2.23-.84,2.57-1.7.34-.86.36-1.62.27-1.77-.09-.15-.33-.26-.7-.45-.37-.19-2.17-1.16-2.51-1.29-.13-.06-.26-.09-.4-.1-.09,0-.18.03-.26.08-.08.05-.14.11-.19.19-.3.38-.99,1.19-1.23,1.43-.05.06-.11.11-.18.14-.07.03-.15.05-.22.05-.14,0-.28-.04-.41-.11-1.09-.46-2.09-1.13-2.94-1.96-.79-.78-1.47-1.68-2-2.66-.2-.38,0-.58.19-.75.19-.18.39-.42.58-.64.16-.18.29-.38.39-.6.05-.1.08-.21.08-.33,0-.11-.03-.23-.09-.33-.09-.19-.75-2.06-1.07-2.81-.25-.64-.55-.66-.82-.68-.22-.02-.47-.02-.71-.03h-.03"/>
</svg>